<?xml version="1.0" encoding="utf-8"?>
<!-- Generator: Adobe Illustrator 22.1.0, SVG Export Plug-In . SVG Version: 6.00 Build 0)  -->
<svg version="1.1" id="Layer_1" xmlns="http://www.w3.org/2000/svg" xmlns:xlink="http://www.w3.org/1999/xlink" x="0px" y="0px"
	 viewBox="0 0 512 512" style="enable-background:new 0 0 512 512;" xml:space="preserve">
<style type="text/css">
	.st0{fill:#111111;}
	.st1{fill:#FFFFFF;}
	.st2{fill:#FF506E;}
</style>
<path class="st2" d="M484.2,292.6c-5.1-52.1-38.5-83.5-38.5-83.5L254.9,21l0-0.3l-0.1,0.1l-0.1-0.1l0,0.3L66.6,211.8
	c0,0-33,31.8-37.3,84c0,0-4.5,41.1,27.5,85.2l113,113l87.4-87l-85.9-85.9c-30-44.3,9.5-79,9.5-79c41.3-30.6,75.3,1.1,77.4,3.1
	c2.1-2,36-33.7,77.4-3.1c0,0,39.5,34.8,9.5,79l-86.4,86.4l88,85.3l111.4-114.6C489.2,333.7,484.2,292.6,484.2,292.6z"/>
</svg>
