<?xml version="1.0" encoding="utf-8"?>
<!-- Generator: Adobe Illustrator 22.1.0, SVG Export Plug-In . SVG Version: 6.00 Build 0)  -->
<svg version="1.1" id="Layer_1" xmlns="http://www.w3.org/2000/svg" xmlns:xlink="http://www.w3.org/1999/xlink" x="0px" y="0px"
	 viewBox="0 0 551.5 181.3" style="enable-background:new 0 0 551.5 181.3;" xml:space="preserve">
<style type="text/css">
	.st0{fill:#FF506E;}
</style>
<path class="st0" d="M167.1,102.6c-1.8-18.1-13.4-29-13.4-29L87.5,8.4V8.3l0,0l0,0v0.1L22.3,74.6c0,0-11.4,11-13,29.1
	c0,0-1.5,14.3,9.5,29.5L58,172.4l30.3-30.2l-29.8-29.8C48.1,97.1,61.8,85,61.8,85c14.3-10.6,26.1,0.4,26.8,1.1
	c0.7-0.7,12.5-11.7,26.8-1.1c0,0,13.7,12.1,3.3,27.4l-30,30l30.5,29.6l38.6-39.7C168.9,116.8,167.1,102.6,167.1,102.6z"/>
<g>
	<path d="M244.3,82.7c3.4,2.2,6,5.1,7.6,8.9V80.3H271v62.6h-19.1v-11.3c-1.6,3.7-4.2,6.7-7.6,8.9s-7.6,3.3-12.3,3.3
		c-5.2,0-9.8-1.3-13.9-3.9c-4.1-2.6-7.3-6.3-9.7-11.2c-2.4-4.9-3.5-10.6-3.5-17.1c0-6.6,1.2-12.3,3.5-17.1s5.6-8.5,9.7-11.1
		s8.7-3.9,13.9-3.9C236.8,79.5,240.9,80.6,244.3,82.7z M228.2,100.4c-2.5,2.7-3.8,6.4-3.8,11.2s1.3,8.5,3.8,11.2s5.8,4,9.9,4
		c4,0,7.4-1.4,9.9-4.2c2.6-2.8,3.9-6.5,3.9-11.1c0-4.7-1.3-8.4-3.9-11.2c-2.6-2.7-5.9-4.1-9.9-4.1C234,96.3,230.7,97.7,228.2,100.4z
		"/>
	<path d="M312.8,83c3.8-2.2,7.9-3.4,12.3-3.4v20.5h-5.5c-5.1,0-9,1.1-11.8,3.3s-4.2,5.8-4.2,11v28.5h-19.2V80.3h19.1v11.8
		C305.9,88.2,309,85.2,312.8,83z"/>
	<path d="M379.1,83.4c4.9,2.6,8.8,6.3,11.6,11.2c2.8,4.9,4.2,10.6,4.2,17.1s-1.4,12.2-4.2,17.1c-2.8,4.9-6.7,8.6-11.6,11.2
		c-4.9,2.6-10.5,3.9-16.7,3.9s-11.8-1.3-16.7-3.9s-8.8-6.3-11.6-11.2c-2.8-4.9-4.2-10.6-4.2-17.1s1.4-12.2,4.2-17.1
		c2.8-4.9,6.7-8.6,11.6-11.2s10.5-3.9,16.7-3.9S374.2,80.8,379.1,83.4z M353.2,100.1c-2.5,2.7-3.8,6.5-3.8,11.5s1.3,8.8,3.8,11.5
		c2.5,2.6,5.6,3.9,9.3,3.9c3.7,0,6.7-1.3,9.2-3.9s3.7-6.4,3.7-11.5c0-5-1.2-8.8-3.7-11.5s-5.5-4-9.2-4S355.7,97.4,353.2,100.1z"/>
	<path d="M461.7,86.8c4.2,4.8,6.3,11.4,6.3,19.8V143h-19.2v-34.1c0-4.2-1.1-7.5-3.3-9.8c-2.2-2.4-5.1-3.5-8.8-3.5
		c-3.9,0-7,1.2-9.3,3.7s-3.4,6-3.4,10.6v33.2h-19.2V60H424v31.9c1.8-3.7,4.5-6.7,8-8.9c3.6-2.2,7.7-3.3,12.5-3.3
		C451.8,79.6,457.5,82,461.7,86.8z"/>
	<path d="M516.9,82.7c3.4,2.2,6,5.1,7.6,8.9V80.3h19.1v62.6h-19.1v-11.3c-1.6,3.7-4.2,6.7-7.6,8.9c-3.4,2.2-7.6,3.3-12.3,3.3
		c-5.2,0-9.8-1.3-13.9-3.9c-4.1-2.6-7.3-6.3-9.7-11.2s-3.5-10.6-3.5-17.1c0-6.6,1.2-12.3,3.5-17.1s5.6-8.5,9.7-11.1
		s8.7-3.9,13.9-3.9C509.3,79.5,513.5,80.6,516.9,82.7z M500.8,100.4c-2.5,2.7-3.8,6.4-3.8,11.2s1.3,8.5,3.8,11.2s5.8,4,9.9,4
		c4,0,7.4-1.4,9.9-4.2c2.6-2.8,3.9-6.5,3.9-11.1c0-4.7-1.3-8.4-3.9-11.2c-2.6-2.7-5.9-4.1-9.9-4.1
		C506.6,96.3,503.3,97.7,500.8,100.4z"/>
</g>
</svg>
